<svg width="1047" height="377" viewBox="0 0 1047 377" fill="none" xmlns="http://www.w3.org/2000/svg">
<line x1="646.904" y1="18.4547" x2="585.584" y2="18.4547" stroke="#3D3C41" stroke-width="4.30318" stroke-linecap="round" stroke-linejoin="round"/>
<path d="M688.421 14.5932C688.421 13.1052 687.353 12.0012 685.685 12.0012H682.445V20.5452H683.741V17.1852H685.685C687.353 17.1852 688.421 16.0812 688.421 14.5932ZM687.125 14.5932C687.125 15.4932 686.513 16.0092 685.613 16.0092H683.741V13.1652H685.613C686.513 13.1652 687.125 13.6932 687.125 14.5932ZM694.12 14.9652C693.7 14.5452 693.256 14.3892 692.668 14.3892C691.984 14.3892 691.36 14.6892 691.048 15.1212V14.4612H689.848V20.5452H691.072V16.8492C691.072 16.0092 691.624 15.4812 692.284 15.4812C692.704 15.4812 692.92 15.6132 693.196 15.8892L694.12 14.9652ZM699.534 17.4972C699.534 16.4772 699.39 15.7092 698.814 15.1092C698.418 14.7012 697.818 14.3892 696.99 14.3892C696.162 14.3892 695.574 14.7012 695.178 15.1092C694.602 15.7092 694.458 16.4772 694.458 17.4972C694.458 18.5292 694.602 19.2972 695.178 19.8972C695.574 20.3052 696.162 20.6172 696.99 20.6172C697.818 20.6172 698.418 20.3052 698.814 19.8972C699.39 19.2972 699.534 18.5292 699.534 17.4972ZM698.31 17.4972C698.31 18.1572 698.262 18.7932 697.89 19.1652C697.662 19.3932 697.35 19.5252 696.99 19.5252C696.63 19.5252 696.33 19.3932 696.102 19.1652C695.73 18.7932 695.682 18.1572 695.682 17.4972C695.682 16.8372 695.73 16.2012 696.102 15.8292C696.33 15.6012 696.63 15.4812 696.99 15.4812C697.35 15.4812 697.662 15.6012 697.89 15.8292C698.262 16.2012 698.31 16.8372 698.31 17.4972ZM705.659 14.4612H704.363L702.935 18.7452L701.495 14.4612H700.199L702.431 20.5452H703.427L705.659 14.4612ZM707.947 20.5452V14.4612H706.723V20.5452H707.947ZM707.983 13.2612V11.9652H706.687V13.2612H707.983ZM714.387 18.6852C714.387 17.6052 713.715 17.0652 712.575 16.9692L711.615 16.8852C710.967 16.8252 710.775 16.5492 710.775 16.1892C710.775 15.7332 711.147 15.4092 711.879 15.4092C712.455 15.4092 712.995 15.5292 713.379 15.8532L714.147 15.0732C713.583 14.5812 712.803 14.3892 711.891 14.3892C710.619 14.3892 709.599 15.0612 709.599 16.2492C709.599 17.3172 710.259 17.8332 711.399 17.9292L712.371 18.0132C712.959 18.0612 713.187 18.3252 713.187 18.7332C713.187 19.3092 712.599 19.5732 711.855 19.5732C711.255 19.5732 710.595 19.4412 710.103 18.9372L709.299 19.7412C710.019 20.4492 710.859 20.6172 711.855 20.6172C713.307 20.6172 714.387 19.9572 714.387 18.6852ZM717.099 20.5452V14.4612H715.875V20.5452H717.099ZM717.135 13.2612V11.9652H715.839V13.2612H717.135ZM723.827 17.4972C723.827 16.4772 723.683 15.7092 723.107 15.1092C722.711 14.7012 722.111 14.3892 721.283 14.3892C720.455 14.3892 719.867 14.7012 719.471 15.1092C718.895 15.7092 718.751 16.4772 718.751 17.4972C718.751 18.5292 718.895 19.2972 719.471 19.8972C719.867 20.3052 720.455 20.6172 721.283 20.6172C722.111 20.6172 722.711 20.3052 723.107 19.8972C723.683 19.2972 723.827 18.5292 723.827 17.4972ZM722.603 17.4972C722.603 18.1572 722.555 18.7932 722.183 19.1652C721.955 19.3932 721.643 19.5252 721.283 19.5252C720.923 19.5252 720.623 19.3932 720.395 19.1652C720.023 18.7932 719.975 18.1572 719.975 17.4972C719.975 16.8372 720.023 16.2012 720.395 15.8292C720.623 15.6012 720.923 15.4812 721.283 15.4812C721.643 15.4812 721.955 15.6012 722.183 15.8292C722.555 16.2012 722.603 16.8372 722.603 17.4972ZM730.417 20.5452V16.6572C730.417 15.9732 730.273 15.3972 729.805 14.9412C729.445 14.5932 728.929 14.3892 728.305 14.3892C727.693 14.3892 727.105 14.6172 726.685 15.0732V14.4612H725.485V20.5452H726.709V16.8372C726.709 15.9012 727.285 15.4812 727.969 15.4812C728.653 15.4812 729.193 15.8892 729.193 16.8372V20.5452H730.417ZM736.805 18.6852C736.805 17.6052 736.133 17.0652 734.993 16.9692L734.033 16.8852C733.385 16.8252 733.193 16.5492 733.193 16.1892C733.193 15.7332 733.565 15.4092 734.297 15.4092C734.873 15.4092 735.413 15.5292 735.797 15.8532L736.565 15.0732C736.001 14.5812 735.221 14.3892 734.309 14.3892C733.037 14.3892 732.017 15.0612 732.017 16.2492C732.017 17.3172 732.677 17.8332 733.817 17.9292L734.789 18.0132C735.377 18.0612 735.605 18.3252 735.605 18.7332C735.605 19.3092 735.017 19.5732 734.273 19.5732C733.673 19.5732 733.013 19.4412 732.521 18.9372L731.717 19.7412C732.437 20.4492 733.277 20.6172 734.273 20.6172C735.725 20.6172 736.805 19.9572 736.805 18.6852ZM748.856 20.5452V12.0012H747.56L745.112 17.3172L742.616 12.0012H741.32V20.5452H742.616V14.8332L744.632 18.9972H745.592L747.56 14.8332V20.5452H748.856ZM755.726 17.4972C755.726 16.4772 755.582 15.7092 755.006 15.1092C754.61 14.7012 754.01 14.3892 753.182 14.3892C752.354 14.3892 751.766 14.7012 751.37 15.1092C750.794 15.7092 750.65 16.4772 750.65 17.4972C750.65 18.5292 750.794 19.2972 751.37 19.8972C751.766 20.3052 752.354 20.6172 753.182 20.6172C754.01 20.6172 754.61 20.3052 755.006 19.8972C755.582 19.2972 755.726 18.5292 755.726 17.4972ZM754.502 17.4972C754.502 18.1572 754.454 18.7932 754.082 19.1652C753.854 19.3932 753.542 19.5252 753.182 19.5252C752.822 19.5252 752.522 19.3932 752.294 19.1652C751.922 18.7932 751.874 18.1572 751.874 17.4972C751.874 16.8372 751.922 16.2012 752.294 15.8292C752.522 15.6012 752.822 15.4812 753.182 15.4812C753.542 15.4812 753.854 15.6012 754.082 15.8292C754.454 16.2012 754.502 16.8372 754.502 17.4972ZM762.315 20.5452V16.6572C762.315 15.9732 762.171 15.3972 761.703 14.9412C761.343 14.5932 760.827 14.3892 760.203 14.3892C759.591 14.3892 759.003 14.6172 758.583 15.0732V14.4612H757.383V20.5452H758.607V16.8372C758.607 15.9012 759.183 15.4812 759.867 15.4812C760.551 15.4812 761.091 15.8892 761.091 16.8372V20.5452H762.315ZM766.747 20.5452V19.5012H766.243C765.787 19.5012 765.571 19.2372 765.571 18.7932V15.5052H766.747V14.5692H765.571V12.7212H764.347V14.5692H763.651V15.5052H764.347V18.8532C764.347 19.7292 764.875 20.5452 766.015 20.5452H766.747ZM773.213 20.5452V16.6212C773.213 15.3012 772.457 14.3892 771.101 14.3892C770.501 14.3892 769.949 14.6172 769.529 15.0732V12.0012H768.305V20.5452H769.529V16.8132C769.529 15.9012 770.081 15.4812 770.765 15.4812C771.449 15.4812 771.989 15.8892 771.989 16.8132V20.5452H773.213Z" fill="#7879F1"/>
<path d="M836.218 10.8808V21.3031H834.847V13.5316L831.383 21.3031H830.419L826.94 13.5165V21.3031H825.57V10.8808H827.046L830.901 19.4958L834.757 10.8808H836.218ZM838.03 17.1462C838.03 16.3028 838.201 15.5648 838.542 14.9322C838.884 14.2896 839.35 13.7926 839.943 13.4412C840.545 13.0898 841.213 12.9141 841.946 12.9141C842.669 12.9141 843.296 13.0697 843.829 13.3809C844.361 13.6922 844.757 14.0838 845.018 14.5557V13.0496H846.404V21.3031H845.018V19.7669C844.747 20.2488 844.341 20.6505 843.799 20.9718C843.266 21.283 842.644 21.4387 841.931 21.4387C841.198 21.4387 840.535 21.2579 839.943 20.8965C839.35 20.535 838.884 20.0279 838.542 19.3753C838.201 18.7226 838.03 17.9796 838.03 17.1462ZM845.018 17.1613C845.018 16.5388 844.893 15.9966 844.642 15.5347C844.391 15.0728 844.05 14.7214 843.618 14.4804C843.196 14.2294 842.729 14.1039 842.217 14.1039C841.705 14.1039 841.238 14.2244 840.816 14.4653C840.395 14.7063 840.058 15.0578 839.807 15.5196C839.556 15.9815 839.431 16.5237 839.431 17.1462C839.431 17.7788 839.556 18.331 839.807 18.803C840.058 19.2648 840.395 19.6213 840.816 19.8723C841.238 20.1133 841.705 20.2338 842.217 20.2338C842.729 20.2338 843.196 20.1133 843.618 19.8723C844.05 19.6213 844.391 19.2648 844.642 18.803C844.893 18.331 845.018 17.7838 845.018 17.1613ZM850.091 14.39C850.332 13.9181 850.673 13.5516 851.115 13.2906C851.567 13.0295 852.114 12.899 852.757 12.899V14.3147H852.395C850.859 14.3147 850.091 15.1481 850.091 16.8149V21.3031H848.72V13.0496H850.091V14.39ZM853.827 17.1613C853.827 16.3078 853.997 15.5648 854.339 14.9322C854.68 14.2896 855.152 13.7926 855.754 13.4412C856.367 13.0898 857.065 12.9141 857.848 12.9141C858.862 12.9141 859.695 13.1601 860.348 13.652C861.011 14.144 861.448 14.8268 861.658 15.7004H860.182C860.042 15.1983 859.766 14.8017 859.354 14.5105C858.952 14.2194 858.45 14.0738 857.848 14.0738C857.065 14.0738 856.432 14.3449 855.95 14.8871C855.468 15.4192 855.227 16.1773 855.227 17.1613C855.227 18.1553 855.468 18.9234 855.95 19.4656C856.432 20.0078 857.065 20.2789 857.848 20.2789C858.45 20.2789 858.952 20.1384 859.354 19.8572C859.756 19.5761 860.032 19.1745 860.182 18.6523H861.658C861.438 19.4958 860.996 20.1735 860.333 20.6856C859.67 21.1876 858.842 21.4387 857.848 21.4387C857.065 21.4387 856.367 21.2629 855.754 20.9115C855.152 20.5601 854.68 20.0631 854.339 19.4205C853.997 18.7779 853.827 18.0248 853.827 17.1613ZM867.584 12.899C868.206 12.899 868.769 13.0345 869.271 13.3056C869.773 13.5667 870.164 13.9633 870.445 14.4955C870.737 15.0276 870.882 15.6753 870.882 16.4384V21.3031H869.527V16.6342C869.527 15.8108 869.321 15.1833 868.909 14.7515C868.498 14.3097 867.935 14.0888 867.222 14.0888C866.499 14.0888 865.922 14.3147 865.49 14.7666C865.069 15.2184 864.858 15.8761 864.858 16.7396V21.3031H863.487V10.1579H864.858V14.2244C865.129 13.8027 865.5 13.4763 865.972 13.2454C866.454 13.0145 866.991 12.899 867.584 12.899ZM876.745 20.2036C878.02 19.1795 879.019 18.3411 879.742 17.6884C880.465 17.0257 881.072 16.3379 881.564 15.6251C882.066 14.9021 882.317 14.1942 882.317 13.5014C882.317 12.8488 882.157 12.3367 881.835 11.9652C881.524 11.5837 881.017 11.3929 880.314 11.3929C879.631 11.3929 879.099 11.6088 878.718 12.0405C878.346 12.4622 878.145 13.0295 878.115 13.7424H876.79C876.83 12.6179 877.171 11.7493 877.814 11.1368C878.457 10.5244 879.285 10.2181 880.299 10.2181C881.333 10.2181 882.152 10.5043 882.754 11.0766C883.367 11.6489 883.673 12.4371 883.673 13.4412C883.673 14.2746 883.422 15.0879 882.92 15.8811C882.428 16.6643 881.866 17.3571 881.233 17.9595C880.6 18.5519 879.792 19.2447 878.808 20.038H883.989V21.1826H876.745V20.2036ZM885.573 15.7455C885.573 14.0185 885.855 12.6731 886.417 11.7092C886.979 10.7352 887.963 10.2482 889.369 10.2482C890.765 10.2482 891.744 10.7352 892.306 11.7092C892.868 12.6731 893.149 14.0185 893.149 15.7455C893.149 17.5027 892.868 18.8682 892.306 19.8422C891.744 20.8161 890.765 21.3031 889.369 21.3031C887.963 21.3031 886.979 20.8161 886.417 19.8422C885.855 18.8682 885.573 17.5027 885.573 15.7455ZM891.794 15.7455C891.794 14.872 891.734 14.134 891.613 13.5316C891.503 12.9191 891.267 12.4271 890.905 12.0556C890.554 11.6841 890.042 11.4983 889.369 11.4983C888.686 11.4983 888.164 11.6841 887.803 12.0556C887.451 12.4271 887.215 12.9191 887.095 13.5316C886.984 14.134 886.929 14.872 886.929 15.7455C886.929 16.6492 886.984 17.4073 887.095 18.0198C887.215 18.6323 887.451 19.1243 887.803 19.4958C888.164 19.8673 888.686 20.053 889.369 20.053C890.042 20.053 890.554 19.8673 890.905 19.4958C891.267 19.1243 891.503 18.6323 891.613 18.0198C891.734 17.4073 891.794 16.6492 891.794 15.7455ZM894.865 20.2036C896.14 19.1795 897.139 18.3411 897.862 17.6884C898.585 17.0257 899.193 16.3379 899.685 15.6251C900.187 14.9021 900.438 14.1942 900.438 13.5014C900.438 12.8488 900.277 12.3367 899.956 11.9652C899.645 11.5837 899.137 11.3929 898.435 11.3929C897.752 11.3929 897.22 11.6088 896.838 12.0405C896.467 12.4622 896.266 13.0295 896.236 13.7424H894.91C894.951 12.6179 895.292 11.7493 895.934 11.1368C896.577 10.5244 897.405 10.2181 898.42 10.2181C899.454 10.2181 900.272 10.5043 900.875 11.0766C901.487 11.6489 901.793 12.4371 901.793 13.4412C901.793 14.2746 901.542 15.0879 901.04 15.8811C900.548 16.6643 899.986 17.3571 899.353 17.9595C898.721 18.5519 897.913 19.2447 896.929 20.038H902.11V21.1826H894.865V20.2036ZM903.694 15.7455C903.694 14.0185 903.975 12.6731 904.537 11.7092C905.1 10.7352 906.084 10.2482 907.489 10.2482C908.885 10.2482 909.864 10.7352 910.426 11.7092C910.989 12.6731 911.27 14.0185 911.27 15.7455C911.27 17.5027 910.989 18.8682 910.426 19.8422C909.864 20.8161 908.885 21.3031 907.489 21.3031C906.084 21.3031 905.1 20.8161 904.537 19.8422C903.975 18.8682 903.694 17.5027 903.694 15.7455ZM909.914 15.7455C909.914 14.872 909.854 14.134 909.733 13.5316C909.623 12.9191 909.387 12.4271 909.026 12.0556C908.674 11.6841 908.162 11.4983 907.489 11.4983C906.807 11.4983 906.284 11.6841 905.923 12.0556C905.572 12.4271 905.336 12.9191 905.215 13.5316C905.105 14.134 905.049 14.872 905.049 15.7455C905.049 16.6492 905.105 17.4073 905.215 18.0198C905.336 18.6323 905.572 19.1243 905.923 19.4958C906.284 19.8673 906.807 20.053 907.489 20.053C908.162 20.053 908.674 19.8673 909.026 19.4958C909.387 19.1243 909.623 18.6323 909.733 18.0198C909.854 17.4073 909.914 16.6492 909.914 15.7455Z" fill="white"/>
<path fill-rule="evenodd" clip-rule="evenodd" d="M925.05 12.5378C925.05 11.8446 925.612 11.2827 926.305 11.2827H935.091C935.784 11.2827 936.346 11.8446 936.346 12.5378V21.3235C936.346 22.0166 935.784 22.5786 935.091 22.5786H926.305C925.612 22.5786 925.05 22.0166 925.05 21.3235V12.5378Z" stroke="#5E5CE6" stroke-width="1.25509" stroke-linecap="round" stroke-linejoin="round"/>
<path d="M933.208 10.0277V12.5379" stroke="#5E5CE6" stroke-width="1.25509" stroke-linecap="round" stroke-linejoin="round"/>
<path d="M928.188 10.0277V12.5379" stroke="#5E5CE6" stroke-width="1.25509" stroke-linecap="round" stroke-linejoin="round"/>
<path d="M925.05 15.048H936.346" stroke="#5E5CE6" stroke-width="1.25509" stroke-linecap="round" stroke-linejoin="round"/>
<rect x="814.19" y="0.537836" width="134.259" height="31.5306" rx="3.76528" stroke="#3D3C41" stroke-width="1.07579"/>
<path fill-rule="evenodd" clip-rule="evenodd" d="M997.398 17.5582C998.091 17.5582 998.653 16.9963 998.653 16.3031C998.653 15.61 998.091 15.048 997.398 15.048C996.705 15.048 996.143 15.61 996.143 16.3031C996.143 16.9963 996.705 17.5582 997.398 17.5582Z" stroke="#5E5CE6" stroke-width="1.25509" stroke-linecap="round" stroke-linejoin="round"/>
<path fill-rule="evenodd" clip-rule="evenodd" d="M1002.42 17.5582C1003.11 17.5582 1003.67 16.9963 1003.67 16.3031C1003.67 15.61 1003.11 15.048 1002.42 15.048C1001.73 15.048 1001.16 15.61 1001.16 16.3031C1001.16 16.9963 1001.73 17.5582 1002.42 17.5582Z" stroke="#5E5CE6" stroke-width="1.25509" stroke-linecap="round" stroke-linejoin="round"/>
<path fill-rule="evenodd" clip-rule="evenodd" d="M992.377 17.5582C993.071 17.5582 993.633 16.9963 993.633 16.3031C993.633 15.61 993.071 15.048 992.377 15.048C991.684 15.048 991.122 15.61 991.122 16.3031C991.122 16.9963 991.684 17.5582 992.377 17.5582Z" stroke="#5E5CE6" stroke-width="1.25509" stroke-linecap="round" stroke-linejoin="round"/>
<rect x="981.799" y="0.704096" width="31.198" height="31.198" rx="3.76528" stroke="#3D3C41" stroke-width="1.07579"/>
<g clip-path="url(#clip0_17_181)">
<path d="M9.738 10.4161V8.18412H0.54V10.4161H3.888V21.0001H6.39V10.4161H9.738ZM17.9439 16.3021C17.9439 14.6101 17.7279 13.5481 16.8819 12.6661C16.3059 12.0541 15.3519 11.5141 13.9659 11.5141C12.5799 11.5141 11.6439 12.0541 11.0679 12.6661C10.2219 13.5481 10.0059 14.6101 10.0059 16.3021C10.0059 18.0121 10.2219 19.0741 11.0679 19.9561C11.6439 20.5681 12.5799 21.1081 13.9659 21.1081C15.3519 21.1081 16.3059 20.5681 16.8819 19.9561C17.7279 19.0741 17.9439 18.0121 17.9439 16.3021ZM15.6039 16.3021C15.6039 17.2741 15.5499 18.1021 15.0639 18.5881C14.7939 18.8581 14.4339 19.0021 13.9659 19.0021C13.4979 19.0021 13.1559 18.8581 12.8859 18.5881C12.3999 18.1021 12.3459 17.2741 12.3459 16.3021C12.3459 15.3301 12.3999 14.5201 12.8859 14.0341C13.1559 13.7641 13.4979 13.6201 13.9659 13.6201C14.4339 13.6201 14.7939 13.7641 15.0639 14.0341C15.5499 14.5201 15.6039 15.3301 15.6039 16.3021ZM24.3873 21.0001V19.0201H23.5413C22.9833 19.0201 22.7313 18.7141 22.7313 18.1741V13.6741H24.3873V11.8921H22.7313V9.12012H20.3913V11.8921H19.4013V13.6741H20.3913V18.3181C20.3913 19.6501 21.2013 21.0001 23.1093 21.0001H24.3873ZM33.5427 21.0001V14.8261C33.5427 12.6301 32.1747 11.5141 29.5467 11.5141C27.9807 11.5141 27.0807 11.8021 26.1627 12.8101L27.6567 14.2681C28.1427 13.7101 28.5567 13.4941 29.4567 13.4941C30.6987 13.4941 31.2027 13.9441 31.2027 14.9701V15.4381H28.9887C26.8107 15.4381 25.7847 16.6621 25.7847 18.1561C25.7847 18.9841 26.0547 19.7401 26.5587 20.2621C27.1167 20.8201 27.8907 21.0901 28.9527 21.0901C30.0327 21.0901 30.6267 20.8201 31.2567 20.1901V21.0001H33.5427ZM31.2027 17.5441C31.2027 18.1201 31.1127 18.4981 30.8607 18.7321C30.4467 19.1281 30.0327 19.1821 29.3847 19.1821C28.4667 19.1821 28.0347 18.7501 28.0347 18.1021C28.0347 17.4361 28.5027 17.0401 29.3487 17.0401H31.2027V17.5441ZM40.044 21.0001V19.0201H39.144C38.55 19.0201 38.316 18.7321 38.316 18.1741V8.18412H35.976V18.3181C35.976 19.6501 36.786 21.0001 38.712 21.0001H40.044ZM53.5911 11.6221H51.1251L49.2351 17.4181L47.3271 11.6221H44.8611L48.3171 21.0001H50.1531L53.5911 11.6221ZM57.32 21.0001V11.6221H54.98V21.0001H57.32ZM57.338 10.0201V8.11212H54.944V10.0201H57.338ZM66.993 18.0481C66.993 16.4641 66.057 15.4741 64.203 15.2941L62.727 15.1501C61.899 15.0781 61.755 14.6821 61.755 14.3401C61.755 13.8721 62.151 13.4401 63.087 13.4401C63.897 13.4401 64.725 13.5841 65.265 14.0701L66.705 12.6121C65.805 11.7661 64.581 11.5141 63.123 11.5141C61.215 11.5141 59.505 12.5581 59.505 14.5021C59.505 16.2301 60.549 16.9681 62.241 17.1301L63.717 17.2741C64.455 17.3461 64.707 17.6701 64.707 18.1381C64.707 18.8401 63.861 19.1101 63.051 19.1101C62.331 19.1101 61.323 19.0021 60.549 18.2281L59.019 19.7581C60.207 20.9461 61.539 21.1081 63.015 21.1081C65.229 21.1081 66.993 20.1181 66.993 18.0481ZM71.2946 21.0001V11.6221H68.9546V21.0001H71.2946ZM71.3126 10.0201V8.11212H68.9186V10.0201H71.3126ZM78.1237 21.0001V19.0201H77.2777C76.7197 19.0201 76.4677 18.7141 76.4677 18.1741V13.6741H78.1237V11.8921H76.4677V9.12012H74.1277V11.8921H73.1377V13.6741H74.1277V18.3181C74.1277 19.6501 74.9377 21.0001 76.8457 21.0001H78.1237ZM87.2958 18.0481C87.2958 16.4641 86.3598 15.4741 84.5058 15.2941L83.0298 15.1501C82.2018 15.0781 82.0578 14.6821 82.0578 14.3401C82.0578 13.8721 82.4538 13.4401 83.3898 13.4401C84.1998 13.4401 85.0278 13.5841 85.5678 14.0701L87.0078 12.6121C86.1078 11.7661 84.8838 11.5141 83.4258 11.5141C81.5178 11.5141 79.8078 12.5581 79.8078 14.5021C79.8078 16.2301 80.8518 16.9681 82.5438 17.1301L84.0198 17.2741C84.7578 17.3461 85.0098 17.6701 85.0098 18.1381C85.0098 18.8401 84.1638 19.1101 83.3538 19.1101C82.6338 19.1101 81.6258 19.0021 80.8518 18.2281L79.3218 19.7581C80.5098 20.9461 81.8418 21.1081 83.3178 21.1081C85.5318 21.1081 87.2958 20.1181 87.2958 18.0481Z" fill="white"/>
<path fill-rule="evenodd" clip-rule="evenodd" d="M115.11 23.1298C119.566 23.1298 123.178 19.5174 123.178 15.0613C123.178 10.6052 119.566 6.99286 115.11 6.99286C110.654 6.99286 107.042 10.6052 107.042 15.0613C107.042 19.5174 110.654 23.1298 115.11 23.1298Z" stroke="#7879F1" stroke-width="1.61369" stroke-linecap="round" stroke-linejoin="round"/>
<path d="M115.11 11.834V15.0613" stroke="#7879F1" stroke-width="1.61369" stroke-linecap="round" stroke-linejoin="round"/>
<circle cx="115.11" cy="18.2886" r="0.806846" fill="#7879F1"/>
</g>
<path d="M73.7876 218.97C129.69 211.462 125.963 256.065 199.567 262.572C273.172 269.079 293.669 223.529 327.211 210.514C360.752 197.499 375.659 138.194 431.561 142.198C487.464 146.203 515.415 186.327 562 191.332C608.585 196.338 617.902 229.535 661.692 254.063C705.482 278.59 745.545 281.593 800.516 276.588C855.486 271.582 870.393 220.973 896.481 218.97C922.569 216.968 945.861 241.102 968.222 246.608C990.583 252.114 997.105 276.588 1044.62 276.588" stroke="#3D3C41" stroke-width="4.30318" stroke-linecap="round" stroke-linejoin="round"/>
<path d="M0.768362 78.2966C2.04354 77.2724 3.04259 76.434 3.76553 75.7814C4.48846 75.1187 5.09593 74.4309 5.58792 73.718C6.08996 72.9951 6.34098 72.2872 6.34098 71.5944C6.34098 70.9417 6.18033 70.4297 5.85902 70.0582C5.54776 69.6766 5.0407 69.4858 4.33785 69.4858C3.65508 69.4858 3.12292 69.7017 2.74137 70.1335C2.36986 70.5552 2.16905 71.1225 2.13892 71.8354H0.813545C0.853708 70.7108 1.19509 69.8423 1.8377 69.2298C2.48031 68.6173 3.30867 68.3111 4.32279 68.3111C5.35699 68.3111 6.17531 68.5972 6.77775 69.1696C7.39024 69.7419 7.69648 70.5301 7.69648 71.5341C7.69648 72.3675 7.44546 73.1808 6.94342 73.9741C6.45143 74.7572 5.88915 75.45 5.25658 76.0525C4.62401 76.6449 3.81573 77.3377 2.83174 78.1309H8.01276V79.2756H0.768362V78.2966ZM15.6668 71.0974C15.4459 69.9829 14.7581 69.4256 13.6034 69.4256C12.7098 69.4256 12.042 69.772 11.6003 70.4648C11.1585 71.1476 10.9426 72.2772 10.9526 73.8536C11.1836 73.3314 11.5651 72.9248 12.0973 72.6336C12.6395 72.3324 13.2419 72.1818 13.9046 72.1818C14.9388 72.1818 15.7621 72.5031 16.3746 73.1457C16.9972 73.7883 17.3084 74.6769 17.3084 75.8115C17.3084 76.4943 17.1729 77.1068 16.9018 77.649C16.6407 78.1912 16.2391 78.6229 15.6969 78.9442C15.1647 79.2655 14.5171 79.4262 13.754 79.4262C12.7198 79.4262 11.9115 79.1952 11.3292 78.7334C10.7468 78.2715 10.3401 77.6339 10.1092 76.8206C9.87826 76.0073 9.7628 75.0032 9.7628 73.8084C9.7628 70.1234 11.048 68.2809 13.6184 68.2809C14.6024 68.2809 15.3756 68.547 15.9379 69.0792C16.5001 69.6113 16.8315 70.2841 16.9319 71.0974H15.6668ZM13.6184 73.3415C13.1867 73.3415 12.78 73.4319 12.3985 73.6126C12.0169 73.7833 11.7057 74.0494 11.4647 74.4108C11.2338 74.7623 11.1183 75.194 11.1183 75.7061C11.1183 76.4692 11.3392 77.0917 11.781 77.5737C12.2228 78.0456 12.8553 78.2815 13.6787 78.2815C14.3815 78.2815 14.9388 78.0657 15.3505 77.6339C15.7722 77.1921 15.983 76.5997 15.983 75.8567C15.983 75.0735 15.7822 74.461 15.3806 74.0192C14.979 73.5674 14.3916 73.3415 13.6184 73.3415ZM19.1574 73.8385C19.1574 72.1115 19.4386 70.766 20.0008 69.8021C20.5631 68.8282 21.5471 68.3412 22.9528 68.3412C24.3485 68.3412 25.3275 68.8282 25.8897 69.8021C26.452 70.766 26.7332 72.1115 26.7332 73.8385C26.7332 75.5956 26.452 76.9612 25.8897 77.9351C25.3275 78.9091 24.3485 79.3961 22.9528 79.3961C21.5471 79.3961 20.5631 78.9091 20.0008 77.9351C19.4386 76.9612 19.1574 75.5956 19.1574 73.8385ZM25.3777 73.8385C25.3777 72.965 25.3174 72.227 25.1969 71.6245C25.0865 71.012 24.8505 70.52 24.489 70.1485C24.1376 69.777 23.6255 69.5913 22.9528 69.5913C22.27 69.5913 21.7479 69.777 21.3865 70.1485C21.035 70.52 20.7991 71.012 20.6786 71.6245C20.5681 72.227 20.5129 72.965 20.5129 73.8385C20.5129 74.7422 20.5681 75.5002 20.6786 76.1127C20.7991 76.7252 21.035 77.2172 21.3865 77.5887C21.7479 77.9602 22.27 78.146 22.9528 78.146C23.6255 78.146 24.1376 77.9602 24.489 77.5887C24.8505 77.2172 25.0865 76.7252 25.1969 76.1127C25.3174 75.5002 25.3777 74.7422 25.3777 73.8385ZM11.8082 92.9738V103.396H10.4376V95.6245L6.97355 103.396H6.00963L2.53051 95.6095V103.396H1.15995V92.9738H2.63594L6.49159 101.589L10.3472 92.9738H11.8082Z" fill="#7879F1"/>
<path d="M0.768362 155.754C2.04354 154.73 3.04259 153.891 3.76553 153.239C4.48846 152.576 5.09593 151.888 5.58792 151.175C6.08996 150.452 6.34098 149.744 6.34098 149.052C6.34098 148.399 6.18033 147.887 5.85902 147.515C5.54776 147.134 5.0407 146.943 4.33785 146.943C3.65508 146.943 3.12292 147.159 2.74137 147.591C2.36986 148.012 2.16905 148.58 2.13892 149.293H0.813545C0.853708 148.168 1.19509 147.299 1.8377 146.687C2.48031 146.075 3.30867 145.768 4.32279 145.768C5.35699 145.768 6.17531 146.054 6.77775 146.627C7.39024 147.199 7.69648 147.987 7.69648 148.991C7.69648 149.825 7.44546 150.638 6.94342 151.431C6.45143 152.214 5.88915 152.907 5.25658 153.51C4.62401 154.102 3.81573 154.795 2.83174 155.588H8.01276V156.733H0.768362V155.754ZM9.43145 155.754C10.7066 154.73 11.7057 153.891 12.4286 153.239C13.1515 152.576 13.759 151.888 14.251 151.175C14.753 150.452 15.0041 149.744 15.0041 149.052C15.0041 148.399 14.8434 147.887 14.5221 147.515C14.2108 147.134 13.7038 146.943 13.0009 146.943C12.3182 146.943 11.786 147.159 11.4045 147.591C11.033 148.012 10.8321 148.58 10.802 149.293H9.47663C9.5168 148.168 9.85818 147.299 10.5008 146.687C11.1434 146.075 11.9718 145.768 12.9859 145.768C14.0201 145.768 14.8384 146.054 15.4408 146.627C16.0533 147.199 16.3596 147.987 16.3596 148.991C16.3596 149.825 16.1086 150.638 15.6065 151.431C15.1145 152.214 14.5522 152.907 13.9197 153.51C13.2871 154.102 12.4788 154.795 11.4948 155.588H16.6759V156.733H9.43145V155.754ZM18.2602 151.296C18.2602 149.569 18.5414 148.223 19.1036 147.259C19.6659 146.285 20.6499 145.798 22.0556 145.798C23.4513 145.798 24.4303 146.285 24.9925 147.259C25.5548 148.223 25.836 149.569 25.836 151.296C25.836 153.053 25.5548 154.418 24.9925 155.392C24.4303 156.366 23.4513 156.853 22.0556 156.853C20.6499 156.853 19.6659 156.366 19.1036 155.392C18.5414 154.418 18.2602 153.053 18.2602 151.296ZM24.4805 151.296C24.4805 150.422 24.4202 149.684 24.2997 149.082C24.1893 148.469 23.9533 147.977 23.5919 147.606C23.2404 147.234 22.7283 147.048 22.0556 147.048C21.3728 147.048 20.8507 147.234 20.4893 147.606C20.1378 147.977 19.9019 148.469 19.7814 149.082C19.6709 149.684 19.6157 150.422 19.6157 151.296C19.6157 152.199 19.6709 152.957 19.7814 153.57C19.9019 154.182 20.1378 154.674 20.4893 155.046C20.8507 155.417 21.3728 155.603 22.0556 155.603C22.7283 155.603 23.2404 155.417 23.5919 155.046C23.9533 154.674 24.1893 154.182 24.2997 153.57C24.4202 152.957 24.4805 152.199 24.4805 151.296ZM11.8082 170.431V180.853H10.4376V173.082L6.97355 180.853H6.00963L2.53051 173.067V180.853H1.15995V170.431H2.63594L6.49159 179.046L10.3472 170.431H11.8082Z" fill="#7879F1"/>
<path d="M0.572567 224.671V223.421H3.40406V234.311H2.01844V224.671H0.572567ZM7.74637 228.648C7.18409 228.427 6.75234 228.105 6.45111 227.684C6.14989 227.262 5.99928 226.75 5.99928 226.147C5.99928 225.605 6.13483 225.118 6.40593 224.686C6.67703 224.245 7.07866 223.898 7.61082 223.647C8.15302 223.386 8.80567 223.256 9.56877 223.256C10.3319 223.256 10.9795 223.386 11.5117 223.647C12.0539 223.898 12.4605 224.245 12.7316 224.686C13.0127 225.118 13.1533 225.605 13.1533 226.147C13.1533 226.73 12.9977 227.242 12.6864 227.684C12.3752 228.115 11.9484 228.437 11.4062 228.648C12.0288 228.838 12.5207 229.175 12.8822 229.657C13.2537 230.129 13.4395 230.701 13.4395 231.374C13.4395 232.026 13.2788 232.599 12.9575 233.091C12.6362 233.573 12.1794 233.949 11.587 234.22C11.0046 234.481 10.3319 234.612 9.56877 234.612C8.80567 234.612 8.13294 234.481 7.55058 234.22C6.97825 233.949 6.53144 233.573 6.21014 233.091C5.88883 232.599 5.72818 232.026 5.72818 231.374C5.72818 230.701 5.90891 230.124 6.27038 229.642C6.63185 229.16 7.12384 228.828 7.74637 228.648ZM11.8279 226.313C11.8279 225.701 11.6271 225.229 11.2255 224.897C10.8239 224.566 10.2716 224.4 9.56877 224.4C8.87595 224.4 8.32873 224.566 7.9271 224.897C7.52547 225.229 7.32466 225.706 7.32466 226.328C7.32466 226.89 7.53049 227.342 7.94217 227.684C8.36388 228.025 8.90608 228.196 9.56877 228.196C10.2415 228.196 10.7837 228.025 11.1954 227.684C11.6171 227.332 11.8279 226.875 11.8279 226.313ZM9.56877 229.25C8.82575 229.25 8.21829 229.426 7.74637 229.777C7.27445 230.119 7.0385 230.636 7.0385 231.328C7.0385 231.971 7.26441 232.488 7.71625 232.88C8.17812 233.271 8.79563 233.467 9.56877 233.467C10.3419 233.467 10.9544 233.271 11.4062 232.88C11.8581 232.488 12.084 231.971 12.084 231.328C12.084 230.656 11.853 230.144 11.3912 229.792C10.9293 229.431 10.3218 229.25 9.56877 229.25ZM15.2598 228.753C15.2598 227.026 15.5409 225.681 16.1032 224.717C16.6655 223.743 17.6495 223.256 19.0552 223.256C20.4508 223.256 21.4298 223.743 21.9921 224.717C22.5544 225.681 22.8355 227.026 22.8355 228.753C22.8355 230.51 22.5544 231.876 21.9921 232.85C21.4298 233.824 20.4508 234.311 19.0552 234.311C17.6495 234.311 16.6655 233.824 16.1032 232.85C15.5409 231.876 15.2598 230.51 15.2598 228.753ZM21.48 228.753C21.48 227.879 21.4198 227.141 21.2993 226.539C21.1888 225.927 20.9529 225.435 20.5914 225.063C20.24 224.692 19.7279 224.506 19.0552 224.506C18.3724 224.506 17.8503 224.692 17.4888 225.063C17.1374 225.435 16.9014 225.927 16.7809 226.539C16.6705 227.141 16.6153 227.879 16.6153 228.753C16.6153 229.657 16.6705 230.415 16.7809 231.027C16.9014 231.64 17.1374 232.132 17.4888 232.503C17.8503 232.875 18.3724 233.06 19.0552 233.06C19.7279 233.06 20.24 232.875 20.5914 232.503C20.9529 232.132 21.1888 231.64 21.2993 231.027C21.4198 230.415 21.48 229.657 21.48 228.753ZM11.8082 247.888V258.311H10.4376V250.539L6.97355 258.311H6.00963L2.53051 250.524V258.311H1.15995V247.888H2.63594L6.49159 256.503L10.3472 247.888H11.8082Z" fill="#7879F1"/>
<path d="M0.572567 302.129V300.879H3.40406V311.768H2.01844V302.129H0.572567ZM5.42696 309.343V308.304L10.7134 300.984H12.3551V308.153H13.8612V309.343H12.3551V311.768H10.9996V309.343H5.42696ZM11.0598 302.415L7.00838 308.153H11.0598V302.415ZM15.2303 306.21C15.2303 304.483 15.5115 303.138 16.0738 302.174C16.636 301.2 17.62 300.713 19.0257 300.713C20.4214 300.713 21.4004 301.2 21.9627 302.174C22.5249 303.138 22.8061 304.483 22.8061 306.21C22.8061 307.967 22.5249 309.333 21.9627 310.307C21.4004 311.281 20.4214 311.768 19.0257 311.768C17.62 311.768 16.636 311.281 16.0738 310.307C15.5115 309.333 15.2303 307.967 15.2303 306.21ZM21.4506 306.21C21.4506 305.337 21.3903 304.599 21.2698 303.996C21.1594 303.384 20.9234 302.892 20.562 302.52C20.2106 302.149 19.6985 301.963 19.0257 301.963C18.343 301.963 17.8209 302.149 17.4594 302.52C17.108 302.892 16.872 303.384 16.7515 303.996C16.6411 304.599 16.5858 305.337 16.5858 306.21C16.5858 307.114 16.6411 307.872 16.7515 308.484C16.872 309.097 17.108 309.589 17.4594 309.96C17.8209 310.332 18.343 310.518 19.0257 310.518C19.6985 310.518 20.2106 310.332 20.562 309.96C20.9234 309.589 21.1594 309.097 21.2698 308.484C21.3903 307.872 21.4506 307.114 21.4506 306.21ZM11.8082 325.345V335.768H10.4376V327.996L6.97355 335.768H6.00963L2.53051 327.981V335.768H1.15995V325.345H2.63594L6.49159 333.96L10.3472 325.345H11.8082Z" fill="#7879F1"/>
<line x1="67.3193" y1="73.6919" x2="991.426" y2="73.6919" stroke="#3D3C41" stroke-width="1.07579"/>
<line x1="67.3193" y1="151.149" x2="991.426" y2="151.149" stroke="#3D3C41" stroke-width="1.07579"/>
<line x1="67.3193" y1="228.606" x2="991.426" y2="228.606" stroke="#3D3C41" stroke-width="1.07579"/>
<line x1="67.3193" y1="306.064" x2="991.426" y2="306.064" stroke="#3D3C41" stroke-width="1.07579"/>
<path d="M72.7139 289.167C115.462 282.535 150.615 242.091 201.622 235.293C228.807 231.67 250.586 238.721 274.886 249.679C299.185 260.636 294.428 265.368 349.077 273.815C394.175 280.786 405.971 205.628 450.163 208.516C494.354 211.403 514.793 121.04 561.45 128.583C608.107 136.126 617.429 116.623 661.286 153.585C705.143 190.547 745.663 104.392 800.717 96.8484C855.772 89.3052 870.111 169.367 896.239 166.35C922.367 163.333 945.891 220.382 968.286 228.68C990.681 236.977 997.032 206.835 1044.62 206.835" stroke="#5E5CE6" stroke-width="4.30318" stroke-linecap="round" stroke-linejoin="round"/>
<path d="M201.622 235.293C150.615 242.091 115.462 282.535 72.7139 289.167V305.526H1044.62V206.835C997.032 206.835 990.681 236.977 968.286 228.68C945.891 220.382 922.367 163.333 896.239 166.35C870.111 169.367 855.772 89.3052 800.717 96.8484C745.663 104.392 705.143 190.547 661.286 153.585C617.429 116.623 608.107 136.126 561.45 128.583C514.793 121.04 494.354 211.403 450.163 208.516C405.971 205.628 394.175 280.786 349.077 273.815C294.428 265.368 299.185 260.636 274.886 249.679C250.586 238.722 228.807 231.67 201.622 235.293Z" fill="url(#paint0_linear_17_181)"/>
<path d="M67.8917 335.478V334.228H70.7232V345.117H69.3375V335.478H67.8917Z" fill="#7879F1"/>
<path d="M224.126 335.418H218.84V338.852C219.07 338.531 219.412 338.27 219.864 338.069C220.316 337.858 220.802 337.752 221.325 337.752C222.158 337.752 222.836 337.928 223.358 338.28C223.88 338.621 224.251 339.068 224.472 339.62C224.703 340.162 224.819 340.74 224.819 341.352C224.819 342.075 224.683 342.723 224.412 343.295C224.141 343.867 223.724 344.319 223.162 344.65C222.61 344.982 221.922 345.147 221.099 345.147C220.044 345.147 219.191 344.876 218.538 344.334C217.886 343.792 217.489 343.069 217.348 342.165H218.689C218.819 342.738 219.096 343.184 219.517 343.506C219.939 343.827 220.471 343.988 221.114 343.988C221.907 343.988 222.504 343.752 222.906 343.28C223.308 342.798 223.508 342.165 223.508 341.382C223.508 340.599 223.308 339.997 222.906 339.575C222.504 339.143 221.912 338.927 221.129 338.927C220.597 338.927 220.13 339.058 219.728 339.319C219.337 339.57 219.05 339.916 218.87 340.358H217.574V334.213H224.126V335.418Z" fill="#7879F1"/>
<path d="M371.446 335.478V334.228H374.278V345.117H372.892V335.478H371.446ZM369.491 363.56C369.491 361.833 369.772 360.487 370.335 359.523C370.897 358.549 371.881 358.062 373.287 358.062C374.682 358.062 375.661 358.549 376.224 359.523C376.786 360.487 377.067 361.833 377.067 363.56C377.067 365.317 376.786 366.682 376.224 367.656C375.661 368.63 374.682 369.117 373.287 369.117C371.881 369.117 370.897 368.63 370.335 367.656C369.772 366.682 369.491 365.317 369.491 363.56ZM375.712 363.56C375.712 362.686 375.651 361.948 375.531 361.346C375.42 360.733 375.184 360.241 374.823 359.87C374.472 359.498 373.959 359.313 373.287 359.313C372.604 359.313 372.082 359.498 371.72 359.87C371.369 360.241 371.133 360.733 371.013 361.346C370.902 361.948 370.847 362.686 370.847 363.56C370.847 364.463 370.902 365.221 371.013 365.834C371.133 366.446 371.369 366.938 371.72 367.31C372.082 367.681 372.604 367.867 373.287 367.867C373.959 367.867 374.472 367.681 374.823 367.31C375.184 366.938 375.42 366.446 375.531 365.834C375.651 365.221 375.712 364.463 375.712 363.56Z" fill="#7879F1"/>
<path d="M524.444 335.478V334.228H527.275V345.117H525.89V335.478H524.444ZM529.432 359.418H524.146V362.852C524.377 362.531 524.718 362.27 525.17 362.069C525.622 361.858 526.109 361.752 526.631 361.752C527.464 361.752 528.142 361.928 528.664 362.28C529.186 362.621 529.558 363.068 529.778 363.62C530.009 364.162 530.125 364.74 530.125 365.352C530.125 366.075 529.989 366.723 529.718 367.295C529.447 367.867 529.03 368.319 528.468 368.65C527.916 368.982 527.228 369.147 526.405 369.147C525.351 369.147 524.497 368.876 523.844 368.334C523.192 367.792 522.795 367.069 522.655 366.165H523.995C524.126 366.738 524.402 367.184 524.823 367.506C525.245 367.827 525.777 367.988 526.42 367.988C527.213 367.988 527.81 367.752 528.212 367.28C528.614 366.798 528.815 366.165 528.815 365.382C528.815 364.599 528.614 363.997 528.212 363.575C527.81 363.143 527.218 362.927 526.435 362.927C525.903 362.927 525.436 363.058 525.034 363.319C524.643 363.57 524.356 363.916 524.176 364.358H522.88V358.213H529.432V359.418Z" fill="#7879F1"/>
<path d="M676.595 344.018C677.87 342.994 678.869 342.155 679.592 341.503C680.315 340.84 680.922 340.152 681.414 339.439C681.916 338.716 682.167 338.008 682.167 337.316C682.167 336.663 682.007 336.151 681.685 335.779C681.374 335.398 680.867 335.207 680.164 335.207C679.481 335.207 678.949 335.423 678.568 335.855C678.196 336.276 677.995 336.844 677.965 337.557H676.64C676.68 336.432 677.021 335.564 677.664 334.951C678.307 334.339 679.135 334.032 680.149 334.032C681.183 334.032 682.002 334.318 682.604 334.891C683.216 335.463 683.523 336.251 683.523 337.255C683.523 338.089 683.272 338.902 682.77 339.695C682.278 340.478 681.715 341.171 681.083 341.774C680.45 342.366 679.642 343.059 678.658 343.852H683.839V344.997H676.595V344.018ZM676.363 363.56C676.363 361.833 676.644 360.487 677.207 359.523C677.769 358.549 678.753 358.062 680.159 358.062C681.554 358.062 682.533 358.549 683.095 359.523C683.658 360.487 683.939 361.833 683.939 363.56C683.939 365.317 683.658 366.682 683.095 367.656C682.533 368.63 681.554 369.117 680.159 369.117C678.753 369.117 677.769 368.63 677.207 367.656C676.644 366.682 676.363 365.317 676.363 363.56ZM682.583 363.56C682.583 362.686 682.523 361.948 682.403 361.346C682.292 360.733 682.056 360.241 681.695 359.87C681.343 359.498 680.831 359.313 680.159 359.313C679.476 359.313 678.954 359.498 678.592 359.87C678.241 360.241 678.005 360.733 677.884 361.346C677.774 361.948 677.719 362.686 677.719 363.56C677.719 364.463 677.774 365.221 677.884 365.834C678.005 366.446 678.241 366.938 678.592 367.31C678.954 367.681 679.476 367.867 680.159 367.867C680.831 367.867 681.343 367.681 681.695 367.31C682.056 366.938 682.292 366.446 682.403 365.834C682.523 365.221 682.583 364.463 682.583 363.56Z" fill="#7879F1"/>
<path d="M829.592 344.018C830.868 342.994 831.867 342.155 832.59 341.503C833.313 340.84 833.92 340.152 834.412 339.439C834.914 338.716 835.165 338.008 835.165 337.316C835.165 336.663 835.004 336.151 834.683 335.779C834.372 335.398 833.865 335.207 833.162 335.207C832.479 335.207 831.947 335.423 831.565 335.855C831.194 336.276 830.993 336.844 830.963 337.557H829.638C829.678 336.432 830.019 335.564 830.662 334.951C831.304 334.339 832.133 334.032 833.147 334.032C834.181 334.032 834.999 334.318 835.602 334.891C836.214 335.463 836.521 336.251 836.521 337.255C836.521 338.089 836.27 338.902 835.767 339.695C835.275 340.478 834.713 341.171 834.081 341.774C833.448 342.366 832.64 343.059 831.656 343.852H836.837V344.997H829.592V344.018ZM836.304 359.418H831.018V362.852C831.249 362.531 831.59 362.27 832.042 362.069C832.494 361.858 832.981 361.752 833.503 361.752C834.336 361.752 835.014 361.928 835.536 362.28C836.058 362.621 836.43 363.068 836.651 363.62C836.881 364.162 836.997 364.74 836.997 365.352C836.997 366.075 836.861 366.723 836.59 367.295C836.319 367.867 835.903 368.319 835.34 368.65C834.788 368.982 834.1 369.147 833.277 369.147C832.223 369.147 831.369 368.876 830.716 368.334C830.064 367.792 829.667 367.069 829.527 366.165H830.867C830.998 366.738 831.274 367.184 831.695 367.506C832.117 367.827 832.649 367.988 833.292 367.988C834.085 367.988 834.683 367.752 835.084 367.28C835.486 366.798 835.687 366.165 835.687 365.382C835.687 364.599 835.486 363.997 835.084 363.575C834.683 363.143 834.09 362.927 833.307 362.927C832.775 362.927 832.308 363.058 831.906 363.319C831.515 363.57 831.229 363.916 831.048 364.358H829.753V358.213H836.304V359.418Z" fill="#7879F1"/>
<path d="M1038.03 336.969C1038.1 336.045 1038.46 335.323 1039.1 334.8C1039.75 334.278 1040.58 334.017 1041.6 334.017C1042.29 334.017 1042.87 334.143 1043.37 334.394C1043.87 334.635 1044.24 334.966 1044.5 335.388C1044.76 335.81 1044.89 336.286 1044.89 336.819C1044.89 337.441 1044.71 337.978 1044.35 338.43C1043.99 338.882 1043.53 339.173 1042.96 339.304V339.379C1043.61 339.54 1044.13 339.856 1044.51 340.328C1044.89 340.8 1045.08 341.417 1045.08 342.18C1045.08 342.753 1044.95 343.27 1044.69 343.732C1044.43 344.184 1044.04 344.54 1043.52 344.801C1042.99 345.062 1042.37 345.193 1041.63 345.193C1040.57 345.193 1039.7 344.916 1039.01 344.364C1038.33 343.802 1037.95 343.009 1037.87 341.985H1039.19C1039.26 342.587 1039.51 343.079 1039.93 343.461C1040.35 343.842 1040.92 344.033 1041.62 344.033C1042.32 344.033 1042.85 343.852 1043.22 343.491C1043.59 343.119 1043.77 342.642 1043.77 342.06C1043.77 341.307 1043.52 340.765 1043.02 340.433C1042.52 340.102 1041.76 339.936 1040.75 339.936H1040.4V338.792H1040.76C1041.68 338.782 1042.38 338.631 1042.85 338.34C1043.33 338.039 1043.56 337.577 1043.56 336.954C1043.56 336.422 1043.39 335.995 1043.03 335.674C1042.69 335.353 1042.2 335.192 1041.56 335.192C1040.94 335.192 1040.43 335.353 1040.05 335.674C1039.67 335.995 1039.45 336.427 1039.38 336.969H1038.03ZM1037.48 363.56C1037.48 361.833 1037.76 360.487 1038.32 359.523C1038.88 358.549 1039.87 358.062 1041.27 358.062C1042.67 358.062 1043.65 358.549 1044.21 359.523C1044.77 360.487 1045.05 361.833 1045.05 363.56C1045.05 365.317 1044.77 366.682 1044.21 367.656C1043.65 368.63 1042.67 369.117 1041.27 369.117C1039.87 369.117 1038.88 368.63 1038.32 367.656C1037.76 366.682 1037.48 365.317 1037.48 363.56ZM1043.7 363.56C1043.7 362.686 1043.64 361.948 1043.52 361.346C1043.41 360.733 1043.17 360.241 1042.81 359.87C1042.46 359.498 1041.94 359.313 1041.27 359.313C1040.59 359.313 1040.07 359.498 1039.71 359.87C1039.35 360.241 1039.12 360.733 1039 361.346C1038.89 361.948 1038.83 362.686 1038.83 363.56C1038.83 364.463 1038.89 365.221 1039 365.834C1039.12 366.446 1039.35 366.938 1039.71 367.31C1040.07 367.681 1040.59 367.867 1041.27 367.867C1041.94 367.867 1042.46 367.681 1042.81 367.31C1043.17 366.938 1043.41 366.446 1043.52 365.834C1043.64 365.221 1043.7 364.463 1043.7 363.56Z" fill="#7879F1"/>
<line x1="465.651" y1="180.733" x2="465.651" y2="305.526" stroke="#5E5CE6" stroke-width="1.07579" stroke-dasharray="4.73 4.73"/>
<g filter="url(#filter0_dd_17_181)">
<path fill-rule="evenodd" clip-rule="evenodd" d="M495.264 157.226C493.211 159.881 489.882 159.881 487.829 157.226L483.284 151.636C482.335 150.469 481.86 149.886 481.274 149.466C480.755 149.094 480.174 148.818 479.558 148.649C478.863 148.46 478.111 148.46 476.606 148.46H424.135C416.954 148.46 414.351 147.711 411.725 146.304C409.1 144.898 407.04 142.834 405.636 140.204C404.232 137.575 403.484 134.966 403.484 127.773V74.4763C403.484 67.2831 404.232 64.6747 405.636 62.0449C407.04 59.4152 409.1 57.3514 411.725 55.945C414.351 54.5386 416.954 53.7897 424.135 53.7897H560.032C567.213 53.7897 569.817 54.5386 572.442 55.945C575.067 57.3514 577.127 59.4152 578.531 62.0449C579.935 64.6747 580.683 67.2831 580.683 74.4763V127.773C580.683 134.966 579.935 137.575 578.531 140.204C577.127 142.834 575.067 144.898 572.442 146.304C569.817 147.711 567.213 148.46 560.032 148.46H510.582C507.573 148.46 506.069 148.46 504.678 148.839C503.446 149.175 502.284 149.728 501.245 150.472C500.073 151.312 499.124 152.479 497.227 154.813L495.264 157.226Z" fill="#3A3A3C"/>
</g>
<rect width="137" height="66" transform="translate(395.754 68.8507)" fill="#3A3A3C"/>
<path d="M400.543 71.8521V72.4889H398.907V77.8507H398.124V72.4889H396.48V71.8521H400.543ZM403.848 73.0484C404.203 73.0484 404.525 73.1258 404.812 73.2807C405.098 73.4299 405.322 73.6565 405.483 73.9606C405.649 74.2647 405.732 74.6348 405.732 75.0709V77.8507H404.958V75.1827C404.958 74.7123 404.84 74.3537 404.605 74.1069C404.37 73.8545 404.048 73.7283 403.641 73.7283C403.228 73.7283 402.898 73.8574 402.651 74.1155C402.41 74.3737 402.29 74.7496 402.29 75.243V77.8507H401.507V71.482H402.29V73.8057C402.445 73.5647 402.657 73.3783 402.927 73.2463C403.202 73.1143 403.509 73.0484 403.848 73.0484ZM407.416 72.3685C407.267 72.3685 407.141 72.3168 407.038 72.2135C406.934 72.1103 406.883 71.984 406.883 71.8349C406.883 71.6857 406.934 71.5595 407.038 71.4562C407.141 71.3529 407.267 71.3013 407.416 71.3013C407.56 71.3013 407.68 71.3529 407.778 71.4562C407.881 71.5595 407.933 71.6857 407.933 71.8349C407.933 71.984 407.881 72.1103 407.778 72.2135C407.68 72.3168 407.56 72.3685 407.416 72.3685ZM407.795 73.1344V77.8507H407.012V73.1344H407.795ZM410.799 77.9282C410.438 77.9282 410.114 77.8679 409.827 77.7474C409.54 77.6212 409.313 77.4491 409.147 77.2311C408.981 77.0073 408.889 76.752 408.872 76.4651H409.681C409.703 76.7003 409.812 76.8925 410.008 77.0417C410.208 77.1909 410.469 77.2655 410.791 77.2655C411.089 77.2655 411.324 77.1995 411.496 77.0675C411.669 76.9356 411.755 76.7692 411.755 76.5684C411.755 76.3618 411.663 76.2098 411.479 76.1122C411.296 76.0089 411.012 75.9085 410.627 75.811C410.277 75.7192 409.99 75.6274 409.767 75.5356C409.549 75.4381 409.359 75.2975 409.199 75.1139C409.044 74.9245 408.966 74.6778 408.966 74.3737C408.966 74.1328 409.038 73.9119 409.181 73.711C409.325 73.5102 409.528 73.3525 409.792 73.2377C410.056 73.1172 410.358 73.057 410.696 73.057C411.218 73.057 411.64 73.1889 411.961 73.4529C412.283 73.7168 412.455 74.0783 412.478 74.5373H411.694C411.677 74.2905 411.577 74.0926 411.393 73.9434C411.215 73.7942 410.974 73.7197 410.67 73.7197C410.389 73.7197 410.165 73.7799 409.999 73.9004C409.833 74.0209 409.749 74.1787 409.749 74.3737C409.749 74.5287 409.798 74.6577 409.896 74.761C409.999 74.8586 410.125 74.9389 410.274 75.002C410.429 75.0594 410.642 75.1254 410.911 75.1999C411.25 75.2918 411.525 75.3836 411.737 75.4754C411.95 75.5614 412.13 75.6934 412.28 75.8712C412.435 76.0491 412.515 76.2815 412.521 76.5684C412.521 76.8266 412.449 77.0589 412.305 77.2655C412.162 77.472 411.958 77.6355 411.694 77.756C411.436 77.8708 411.138 77.9282 410.799 77.9282ZM422.005 71.8951V77.8507H421.222V73.4098L419.243 77.8507H418.692L416.704 73.4012V77.8507H415.921V71.8951H416.764L418.967 76.8179L421.171 71.8951H422.005ZM425.39 77.9282C424.949 77.9282 424.547 77.8278 424.186 77.6269C423.83 77.4261 423.549 77.1421 423.342 76.7749C423.141 76.402 423.041 75.9717 423.041 75.484C423.041 75.002 423.144 74.5774 423.351 74.2102C423.563 73.8373 423.85 73.5533 424.211 73.3582C424.573 73.1574 424.977 73.057 425.425 73.057C425.872 73.057 426.277 73.1574 426.638 73.3582C427 73.5533 427.284 73.8344 427.49 74.2016C427.703 74.5688 427.809 74.9963 427.809 75.484C427.809 75.9717 427.7 76.402 427.482 76.7749C427.27 77.1421 426.98 77.4261 426.613 77.6269C426.245 77.8278 425.838 77.9282 425.39 77.9282ZM425.39 77.2397C425.672 77.2397 425.936 77.1737 426.182 77.0417C426.429 76.9097 426.627 76.7118 426.776 76.4479C426.931 76.1839 427.008 75.8626 427.008 75.484C427.008 75.1053 426.934 74.784 426.785 74.52C426.636 74.2561 426.44 74.061 426.199 73.9348C425.959 73.8029 425.697 73.7369 425.416 73.7369C425.129 73.7369 424.866 73.8029 424.625 73.9348C424.389 74.061 424.2 74.2561 424.057 74.52C423.913 74.784 423.841 75.1053 423.841 75.484C423.841 75.8684 423.91 76.1925 424.048 76.4565C424.191 76.7204 424.381 76.9184 424.616 77.0503C424.851 77.1765 425.109 77.2397 425.39 77.2397ZM431.137 73.0484C431.71 73.0484 432.175 73.2234 432.531 73.5733C432.886 73.9176 433.064 74.4168 433.064 75.0709V77.8507H432.29V75.1827C432.29 74.7123 432.172 74.3537 431.937 74.1069C431.702 73.8545 431.38 73.7283 430.973 73.7283C430.56 73.7283 430.23 73.8574 429.983 74.1155C429.742 74.3737 429.622 74.7496 429.622 75.243V77.8507H428.839V73.1344H429.622V73.8057C429.777 73.5647 429.986 73.3783 430.25 73.2463C430.52 73.1143 430.815 73.0484 431.137 73.0484ZM435.299 73.7799V76.5598C435.299 76.7893 435.348 76.9528 435.445 77.0503C435.543 77.1421 435.712 77.188 435.953 77.188H436.53V77.8507H435.824C435.388 77.8507 435.061 77.7503 434.843 77.5495C434.625 77.3487 434.516 77.0188 434.516 76.5598V73.7799H433.905V73.1344H434.516V71.9467H435.299V73.1344H436.53V73.7799H435.299ZM439.82 73.0484C440.175 73.0484 440.497 73.1258 440.783 73.2807C441.07 73.4299 441.294 73.6565 441.455 73.9606C441.621 74.2647 441.704 74.6348 441.704 75.0709V77.8507H440.93V75.1827C440.93 74.7123 440.812 74.3537 440.577 74.1069C440.342 73.8545 440.02 73.7283 439.613 73.7283C439.2 73.7283 438.87 73.8574 438.623 74.1155C438.382 74.3737 438.262 74.7496 438.262 75.243V77.8507H437.479V71.482H438.262V73.8057C438.417 73.5647 438.629 73.3783 438.899 73.2463C439.174 73.1143 439.481 73.0484 439.82 73.0484Z" fill="#EBEBF5" fill-opacity="0.6"/>
<path d="M396.833 101.608C397.369 101.182 397.614 100.985 397.567 101.017C399.113 99.7385 400.328 98.6893 401.211 97.8688C402.111 97.0483 402.868 96.1884 403.484 95.289C404.099 94.3897 404.407 93.514 404.407 92.662C404.407 92.015 404.257 91.5101 403.957 91.1472C403.657 90.7843 403.207 90.6029 402.608 90.6029C402.008 90.6029 401.535 90.8317 401.188 91.2892C400.856 91.731 400.691 92.3622 400.691 93.1826H396.786C396.817 91.8415 397.101 90.7212 397.638 89.8219C398.19 88.9225 398.908 88.2598 399.791 87.8338C400.691 87.4078 401.685 87.1948 402.773 87.1948C404.651 87.1948 406.063 87.676 407.01 88.6385C407.972 89.601 408.454 90.8553 408.454 92.4016C408.454 94.0899 407.878 95.6598 406.726 97.1114C405.574 98.5473 404.107 99.9515 402.324 101.324H408.714V104.614H396.833V101.608ZM410.354 101.608C410.89 101.182 411.135 100.985 411.088 101.017C412.634 99.7385 413.849 98.6893 414.732 97.8688C415.632 97.0483 416.389 96.1884 417.004 95.289C417.62 94.3897 417.928 93.514 417.928 92.662C417.928 92.015 417.778 91.5101 417.478 91.1472C417.178 90.7843 416.728 90.6029 416.129 90.6029C415.529 90.6029 415.056 90.8317 414.709 91.2892C414.377 91.731 414.212 92.3622 414.212 93.1826H410.307C410.338 91.8415 410.622 90.7212 411.159 89.8219C411.711 88.9225 412.429 88.2598 413.312 87.8338C414.212 87.4078 415.206 87.1948 416.294 87.1948C418.172 87.1948 419.584 87.676 420.531 88.6385C421.493 89.601 421.975 90.8553 421.975 92.4016C421.975 94.0899 421.399 95.6598 420.247 97.1114C419.095 98.5473 417.628 99.9515 415.845 101.324H422.235V104.614H410.354V101.608ZM424.017 95.9754C424.017 93.2615 424.538 91.1236 425.579 89.5615C426.636 87.9995 428.332 87.2184 430.667 87.2184C433.003 87.2184 434.691 87.9995 435.732 89.5615C436.789 91.1236 437.318 93.2615 437.318 95.9754C437.318 98.7208 436.789 100.875 435.732 102.437C434.691 103.999 433.003 104.78 430.667 104.78C428.332 104.78 426.636 103.999 425.579 102.437C424.538 100.875 424.017 98.7208 424.017 95.9754ZM433.342 95.9754C433.342 94.3818 433.168 93.159 432.821 92.3069C432.474 91.4391 431.756 91.0052 430.667 91.0052C429.579 91.0052 428.861 91.4391 428.514 92.3069C428.167 93.159 427.993 94.3818 427.993 95.9754C427.993 97.0483 428.056 97.9398 428.182 98.6498C428.309 99.3441 428.561 99.9121 428.94 100.354C429.334 100.78 429.91 100.993 430.667 100.993C431.425 100.993 431.993 100.78 432.372 100.354C432.766 99.9121 433.026 99.3441 433.153 98.6498C433.279 97.9398 433.342 97.0483 433.342 95.9754ZM444.213 101.111L441.586 107.904H439.007L440.379 101.111H444.213ZM446.393 92.4489C446.457 90.7607 447.009 89.459 448.05 88.5438C449.091 87.6287 450.504 87.1711 452.287 87.1711C453.47 87.1711 454.48 87.3762 455.316 87.7865C456.168 88.1967 456.807 88.7568 457.233 89.4668C457.675 90.1769 457.896 90.9737 457.896 91.8573C457.896 92.8986 457.635 93.7507 457.115 94.4133C456.594 95.0603 455.987 95.5021 455.292 95.7387V95.8334C456.192 96.1332 456.902 96.6302 457.422 97.3244C457.943 98.0187 458.203 98.9102 458.203 99.9989C458.203 100.977 457.975 101.845 457.517 102.602C457.075 103.344 456.421 103.928 455.553 104.354C454.701 104.78 453.683 104.993 452.5 104.993C450.606 104.993 449.091 104.527 447.955 103.596C446.835 102.665 446.244 101.261 446.18 99.3835H450.109C450.125 100.078 450.322 100.63 450.701 101.04C451.08 101.435 451.632 101.632 452.358 101.632C452.973 101.632 453.446 101.458 453.778 101.111C454.125 100.748 454.298 100.275 454.298 99.6912C454.298 98.9338 454.054 98.3895 453.565 98.0581C453.091 97.711 452.326 97.5375 451.269 97.5375H450.512V94.2477H451.269C452.074 94.2477 452.721 94.1136 453.21 93.8453C453.715 93.5613 453.967 93.0643 453.967 92.3543C453.967 91.7863 453.809 91.3445 453.494 91.0289C453.178 90.7133 452.744 90.5555 452.192 90.5555C451.592 90.5555 451.143 90.737 450.843 91.0999C450.559 91.4628 450.393 91.9125 450.346 92.4489H446.393ZM460.676 101.774V98.5078L468.155 87.8101H472.675V98.2711H474.616V101.774H472.675V104.851H468.628V101.774H460.676ZM468.912 92.2596L464.936 98.2711H468.912V92.2596ZM476.456 101.608C476.993 101.182 477.237 100.985 477.19 101.017C478.736 99.7385 479.951 98.6893 480.835 97.8688C481.734 97.0483 482.492 96.1884 483.107 95.289C483.722 94.3897 484.03 93.514 484.03 92.662C484.03 92.015 483.88 91.5101 483.58 91.1472C483.281 90.7843 482.831 90.6029 482.231 90.6029C481.632 90.6029 481.158 90.8317 480.811 91.2892C480.48 91.731 480.314 92.3622 480.314 93.1826H476.409C476.441 91.8415 476.725 90.7212 477.261 89.8219C477.813 88.9225 478.531 88.2598 479.415 87.8338C480.314 87.4078 481.308 87.1948 482.397 87.1948C484.275 87.1948 485.687 87.676 486.633 88.6385C487.596 89.601 488.077 90.8553 488.077 92.4016C488.077 94.0899 487.501 95.6598 486.349 97.1114C485.198 98.5473 483.73 99.9515 481.947 101.324H488.338V104.614H476.456V101.608ZM494.877 101.111L492.25 107.904H489.67L491.042 101.111H494.877ZM496.489 91.3366V87.5734H503.044V104.851H498.832V91.3366H496.489ZM505.671 101.608C506.207 101.182 506.452 100.985 506.405 101.017C507.951 99.7385 509.166 98.6893 510.05 97.8688C510.949 97.0483 511.706 96.1884 512.322 95.289C512.937 94.3897 513.245 93.514 513.245 92.662C513.245 92.015 513.095 91.5101 512.795 91.1472C512.495 90.7843 512.045 90.6029 511.446 90.6029C510.846 90.6029 510.373 90.8317 510.026 91.2892C509.694 91.731 509.529 92.3622 509.529 93.1826H505.624C505.655 91.8415 505.939 90.7212 506.476 89.8219C507.028 88.9225 507.746 88.2598 508.629 87.8338C509.529 87.4078 510.523 87.1948 511.612 87.1948C513.489 87.1948 514.901 87.676 515.848 88.6385C516.811 89.601 517.292 90.8553 517.292 92.4016C517.292 94.0899 516.716 95.6598 515.564 97.1114C514.412 98.5473 512.945 99.9515 511.162 101.324H517.552V104.614H505.671V101.608ZM519.476 92.4489C519.539 90.7607 520.091 89.459 521.133 88.5438C522.174 87.6287 523.586 87.1711 525.369 87.1711C526.553 87.1711 527.562 87.3762 528.399 87.7865C529.251 88.1967 529.89 88.7568 530.316 89.4668C530.758 90.1769 530.978 90.9737 530.978 91.8573C530.978 92.8986 530.718 93.7507 530.197 94.4133C529.677 95.0603 529.069 95.5021 528.375 95.7387V95.8334C529.274 96.1332 529.984 96.6302 530.505 97.3244C531.026 98.0187 531.286 98.9102 531.286 99.9989C531.286 100.977 531.057 101.845 530.6 102.602C530.158 103.344 529.503 103.928 528.635 104.354C527.783 104.78 526.766 104.993 525.582 104.993C523.689 104.993 522.174 104.527 521.038 103.596C519.918 102.665 519.326 101.261 519.263 99.3835H523.192C523.208 100.078 523.405 100.63 523.783 101.04C524.162 101.435 524.714 101.632 525.44 101.632C526.056 101.632 526.529 101.458 526.86 101.111C527.207 100.748 527.381 100.275 527.381 99.6912C527.381 98.9338 527.136 98.3895 526.647 98.0581C526.174 97.711 525.409 97.5375 524.352 97.5375H523.594V94.2477H524.352C525.156 94.2477 525.803 94.1136 526.292 93.8453C526.797 93.5613 527.05 93.0643 527.05 92.3543C527.05 91.7863 526.892 91.3445 526.576 91.0289C526.261 90.7133 525.827 90.5555 525.275 90.5555C524.675 90.5555 524.225 90.737 523.925 91.0999C523.641 91.4628 523.476 91.9125 523.428 92.4489H519.476Z" fill="white"/>
<path d="M406.317 118.917V127.851H405.142V121.189L402.173 127.851H401.347L398.364 121.176V127.851H397.19V118.917H398.455L401.76 126.302L405.064 118.917H406.317ZM407.87 124.288C407.87 123.565 408.016 122.932 408.309 122.39C408.602 121.839 409.002 121.413 409.51 121.112C410.026 120.811 410.598 120.66 411.227 120.66C411.846 120.66 412.384 120.793 412.84 121.06C413.296 121.327 413.636 121.663 413.86 122.067V120.776H415.048V127.851H413.86V126.534C413.628 126.947 413.279 127.291 412.814 127.567C412.358 127.833 411.825 127.967 411.214 127.967C410.585 127.967 410.017 127.812 409.51 127.502C409.002 127.192 408.602 126.758 408.309 126.198C408.016 125.639 407.87 125.002 407.87 124.288ZM413.86 124.301C413.86 123.767 413.753 123.302 413.537 122.906C413.322 122.51 413.03 122.209 412.659 122.003C412.298 121.788 411.898 121.68 411.459 121.68C411.02 121.68 410.62 121.783 410.258 121.99C409.897 122.196 409.609 122.498 409.393 122.893C409.178 123.289 409.071 123.754 409.071 124.288C409.071 124.83 409.178 125.303 409.393 125.708C409.609 126.104 409.897 126.409 410.258 126.624C410.62 126.831 411.02 126.934 411.459 126.934C411.898 126.934 412.298 126.831 412.659 126.624C413.03 126.409 413.322 126.104 413.537 125.708C413.753 125.303 413.86 124.834 413.86 124.301ZM423.126 120.776L418.866 131.181H417.653L419.047 127.773L416.194 120.776H417.498L419.718 126.508L421.913 120.776H423.126Z" fill="#EBEBF5" fill-opacity="0.6"/>
<g filter="url(#filter1_dd_17_181)">
<rect x="480.808" y="169.975" width="21.4787" height="21.5159" rx="10.7393" fill="#5E5CE6"/>
<rect x="482.959" y="172.127" width="17.1755" height="17.2127" rx="8.58776" stroke="white" stroke-width="4.30318"/>
</g>
<defs>
<filter id="filter0_dd_17_181" x="386.272" y="45.1833" width="211.624" height="139.853" filterUnits="userSpaceOnUse" color-interpolation-filters="sRGB">
<feFlood flood-opacity="0" result="BackgroundImageFix"/>
<feColorMatrix in="SourceAlpha" type="matrix" values="0 0 0 0 0 0 0 0 0 0 0 0 0 0 0 0 0 0 127 0" result="hardAlpha"/>
<feOffset dy="8.60636"/>
<feGaussianBlur stdDeviation="8.60636"/>
<feColorMatrix type="matrix" values="0 0 0 0 0.196487 0 0 0 0 0.196487 0 0 0 0 0.279476 0 0 0 0.06 0"/>
<feBlend mode="multiply" in2="BackgroundImageFix" result="effect1_dropShadow_17_181"/>
<feColorMatrix in="SourceAlpha" type="matrix" values="0 0 0 0 0 0 0 0 0 0 0 0 0 0 0 0 0 0 127 0" result="hardAlpha"/>
<feOffset dy="8.60636"/>
<feGaussianBlur stdDeviation="4.30318"/>
<feColorMatrix type="matrix" values="0 0 0 0 0.196487 0 0 0 0 0.196487 0 0 0 0 0.279476 0 0 0 0.08 0"/>
<feBlend mode="multiply" in2="effect1_dropShadow_17_181" result="effect2_dropShadow_17_181"/>
<feBlend mode="normal" in="SourceGraphic" in2="effect2_dropShadow_17_181" result="shape"/>
</filter>
<filter id="filter1_dd_17_181" x="475.07" y="167.107" width="32.9539" height="32.991" filterUnits="userSpaceOnUse" color-interpolation-filters="sRGB">
<feFlood flood-opacity="0" result="BackgroundImageFix"/>
<feColorMatrix in="SourceAlpha" type="matrix" values="0 0 0 0 0 0 0 0 0 0 0 0 0 0 0 0 0 0 127 0" result="hardAlpha"/>
<feOffset dy="2.86879"/>
<feGaussianBlur stdDeviation="2.86879"/>
<feColorMatrix type="matrix" values="0 0 0 0 0.196487 0 0 0 0 0.196487 0 0 0 0 0.279476 0 0 0 0.06 0"/>
<feBlend mode="multiply" in2="BackgroundImageFix" result="effect1_dropShadow_17_181"/>
<feColorMatrix in="SourceAlpha" type="matrix" values="0 0 0 0 0 0 0 0 0 0 0 0 0 0 0 0 0 0 127 0" result="hardAlpha"/>
<feOffset dy="2.86879"/>
<feGaussianBlur stdDeviation="1.43439"/>
<feColorMatrix type="matrix" values="0 0 0 0 0.196487 0 0 0 0 0.196487 0 0 0 0 0.279476 0 0 0 0.06 0"/>
<feBlend mode="multiply" in2="effect1_dropShadow_17_181" result="effect2_dropShadow_17_181"/>
<feBlend mode="normal" in="SourceGraphic" in2="effect2_dropShadow_17_181" result="shape"/>
</filter>
<linearGradient id="paint0_linear_17_181" x1="558.668" y1="96.3467" x2="558.668" y2="393.025" gradientUnits="userSpaceOnUse">
<stop stop-color="#5E5CE6" stop-opacity="0.1"/>
<stop offset="0.998978" stop-opacity="0"/>
</linearGradient>
<clipPath id="clip0_17_181">
<rect width="118.318" height="30.1222" fill="white" transform="translate(0 0.00012207)"/>
</clipPath>
</defs>
</svg>
